Phish 3/9/93 
Pike's Peak Center, Colorado Springs, CO 

Source: SBD> Cass/3 (recorded 7/95)

Transfer: Dennon DRW-840> Sony PCM-r500 at 44.1> Audiophile 2496> CD Wave Editor> FLAC on 10/14/04 by EEE

DISC 1 - 70min
Set 1:
t01 - Runaway Jim
t02 - Foam
t03 - Bouncing Around the Room
t04 - Maze
t05 - Esther*
t06 - The Divided\Sky
t07 - Glide
t08 - Punch You in the Eye
t09 - I Didn't Know$

DISC 2 - 75min
t01 - Run Like an Antelope+
Set 2:
t02 - Axilla
t03 - Rift
t04 - Tweezer
t05 - Reba
t06 - Lawn Boy
t07 - Mike's\Song-> 
t08 - I Am Hydrogen-> 
t09 - Weekapaug Groove

DISC 3 - 26min
t01 - The Horse-> 
t02 - Silent in the Morning
t03 - Big Ball Jam
t04 - HYHU-> Terrapin-> HYHU
t05 - I Walk the Line
[missing] - The Squirming Coil
[missing] - Tweezer Reprise 
Encore: 
[missing] - Amazing Grace
[missing] - Rocky Top 

* Language - random note 
$ Fishman on trombone
+ Language - simpsons and all fall down
- Tape flip during quiet portion of Sky (tracks joined with Cool Edit Pro)
- One second cut (on analog tape) at 3:06 of Mike's (tracks joined with Cool Edit Pro)
- [missing] means not on my analog tape

Shntool output:

    length     expanded size   cdr  WAVE problems filename
     8:54.19       94242332    ---   --   -----   ph1993-03-09d1t01.wav
     8:25.25       89140844    ---   --   -----   ph1993-03-09d1t02.wav
     3:39.23       38685740    ---   --   -----   ph1993-03-09d1t03.wav
     9:33.02      101081948    ---   --   -----   ph1993-03-09d1t04.wav
     9:53.24      104661692    ---   --   -----   ph1993-03-09d1t05.wav
    13:18.33      140844860    ---   --   -----   ph1993-03-09d1t06.wav
     4:51.52       51454748    ---   --   -----   ph1993-03-09d1t07.wav
     7:10.42       75950828    ---   --   -----   ph1993-03-09d1t08.wav
     4:01.50       42630044    ---   --   -----   ph1993-03-09d1t09.wav
    12:03.04      127546652    ---   --   -----   ph1993-03-09d2t01.wav
     4:04.00       43041644    ---   --   -----   ph1993-03-09d2t02.wav
     6:09.09       65112812    ---   --   -----   ph1993-03-09d2t03.wav
    13:50.38      146501420    ---   --   -----   ph1993-03-09d2t04.wav
    15:51.70      167921084    ---   --   -----   ph1993-03-09d2t05.wav
     2:46.58       29418860    ---   --   -----   ph1993-03-09d2t06.wav
     8:24.23       88959740    ---   --   -----   ph1993-03-09d2t07.wav
     2:38.01       27873596    ---   --   -----   ph1993-03-09d2t08.wav
     9:00.29       95324252    ---   --   -----   ph1993-03-09d2t09.wav
     1:45.26       18583196    ---   --   -----   ph1993-03-09d3t01.wav
     5:09.46       54615836    ---   --   -----   ph1993-03-09d3t02.wav
     2:47.22       29510588    ---   --   -----   ph1993-03-09d3t03.wav
    13:21.02      141301148    ---   --   -----   ph1993-03-09d3t04.wav
     2:46.17       29322428    ---   --   -----   ph1993-03-09d3t05.wav
   170:25.15     1803726292 B                     (totals for 23 files, 1.0000 o
verall compression ratio)




